<?xml version="1.0" standalone="no"?>
<!DOCTYPE svg PUBLIC "-//W3C//DTD SVG 20010904//EN"
 "http://www.w3.org/TR/2001/REC-SVG-20010904/DTD/svg10.dtd">
<svg version="1.0" xmlns="http://www.w3.org/2000/svg"
 width="500.000000pt" height="500.000000pt" viewBox="0 0 500.000000 500.000000"
 preserveAspectRatio="xMidYMid meet">
<metadata>
Created by potrace 1.16, written by Peter Selinger 2001-2019
</metadata>
<g transform="translate(0.000000,500.000000) scale(0.100000,-0.100000)"
fill="#000000" stroke="none">
<path d="M2400 4479 c-342 -36 -687 -178 -945 -389 -117 -96 -276 -269 -358
-391 -355 -530 -405 -1195 -133 -1785 19 -40 39 -74 45 -74 16 0 15 3 -23 79
-107 212 -176 513 -176 769 0 763 475 1433 1192 1681 458 158 947 125 1383
-91 802 -399 1175 -1340 868 -2193 -19 -55 -51 -130 -69 -167 -38 -75 -39 -78
-23 -78 25 0 138 286 173 440 63 272 61 583 -5 844 -168 672 -692 1179 -1369
1324 -179 39 -383 50 -560 31z"/>
<path d="M2420 4134 c-85 -14 -222 -50 -265 -69 -45 -20 -53 -27 -64 -66 -7
-24 -38 -85 -67 -136 -30 -50 -54 -94 -54 -98 0 -3 -11 -30 -24 -58 -13 -29
-29 -69 -35 -89 -11 -34 -16 -38 -44 -38 -18 0 -49 11 -71 24 -30 19 -44 22
-67 16 -37 -11 -142 -86 -188 -134 -60 -62 -118 -57 -222 20 l-49 36 0 -31 c0
-34 16 -53 82 -99 52 -36 88 -47 123 -38 14 4 70 49 125 101 126 121 137 125
202 83 42 -26 53 -30 69 -20 27 17 30 15 19 -14 -7 -19 -7 -23 2 -18 7 5 9 2
6 -7 -3 -8 -14 -61 -24 -117 -10 -59 -22 -102 -29 -102 -6 0 -24 14 -40 30
-16 17 -38 30 -49 29 -18 -1 -17 -2 4 -8 14 -4 25 -12 25 -18 0 -12 12 -27 23
-29 17 -2 42 -17 42 -25 0 -4 -8 -6 -17 -3 -17 5 -17 5 0 -6 19 -12 18 -25
-15 -124 -11 -34 -40 -85 -66 -119 -44 -56 -47 -63 -45 -115 1 -30 7 -60 12
-65 6 -6 11 -20 11 -30 0 -10 9 -21 20 -24 10 -3 22 -14 25 -24 4 -11 16 -19
29 -19 21 0 25 -9 42 -82 10 -46 18 -94 17 -108 -1 -14 1 -18 3 -10 4 13 28
15 137 16 73 1 151 6 175 11 34 9 42 8 42 -3 0 -7 18 6 40 30 29 32 40 52 40
75 0 20 -4 30 -11 26 -11 -7 -11 -8 17 155 12 70 24 105 44 132 15 21 30 34
34 30 4 -4 6 -2 5 3 -3 13 32 85 42 85 4 0 6 10 4 23 -4 21 -3 21 9 4 8 -10
30 -20 50 -22 20 -2 43 -9 52 -15 8 -7 17 -10 21 -7 3 4 -9 13 -28 21 -25 11
-28 15 -14 16 28 0 97 73 133 138 24 43 31 50 41 39 6 -8 9 -21 5 -30 -3 -8
-1 -18 4 -21 5 -3 13 4 17 17 4 12 8 25 10 30 1 4 3 14 4 23 0 8 6 12 12 8 8
-4 9 1 4 17 -7 21 -6 22 8 11 9 -8 13 -21 10 -29 -4 -11 -2 -14 5 -9 7 4 12 1
12 -8 0 -17 -18 -30 -40 -31 -8 0 -15 -6 -15 -13 0 -8 -7 -19 -16 -25 -9 -7
-19 -23 -22 -37 -4 -14 -4 -19 -1 -12 3 7 19 19 36 28 29 15 32 15 51 -4 l20
-20 -40 -21 c-59 -30 -66 -59 -20 -82 18 -9 20 -9 10 2 -28 29 -15 58 37 84
28 14 50 28 50 31 0 3 -5 2 -12 -2 -6 -4 -8 -3 -4 4 3 6 2 13 -4 17 -5 3 -10
1 -10 -6 0 -18 -10 -5 -15 20 -2 12 1 21 8 21 20 0 57 -76 57 -116 0 -28 7
-43 33 -68 17 -17 41 -48 52 -70 11 -21 25 -41 32 -43 7 -3 13 -10 13 -16 0
-6 -15 3 -33 21 -18 18 -39 32 -47 32 -13 0 -13 -2 0 -10 12 -8 10 -10 -8 -10
-15 0 -21 4 -16 11 5 9 -1 10 -20 5 -22 -5 -26 -3 -26 14 0 11 -5 20 -11 20
-8 0 -7 6 2 18 7 9 10 14 5 10 -5 -4 -18 -1 -30 7 -11 8 -25 15 -30 15 -6 0 0
-7 13 -17 23 -15 23 -20 18 -95 -5 -59 -11 -83 -27 -100 -25 -28 -25 -30 6
-130 54 -170 79 -208 139 -208 41 0 75 23 139 94 33 36 62 66 65 66 3 0 17
-16 30 -35 16 -25 36 -38 65 -46 22 -6 51 -22 64 -36 19 -21 29 -24 60 -19 20
3 42 12 48 21 6 8 13 12 16 9 10 -9 48 53 48 77 0 25 -56 113 -108 171 -19 21
-33 40 -31 42 11 11 116 -19 156 -45 26 -16 58 -29 71 -29 38 0 81 28 82 54 0
5 -7 3 -15 -4 -12 -10 -21 -8 -50 10 -19 12 -35 26 -35 31 0 5 -9 9 -20 9 -20
0 -27 15 -12 23 4 3 28 -1 55 -8 51 -13 66 -3 16 11 -41 12 -33 29 14 28 52
-1 46 13 -9 22 -39 5 -45 9 -42 28 2 17 11 22 43 24 22 2 45 8 50 14 7 7 -5 9
-42 4 -48 -6 -51 -5 -46 14 7 26 56 52 90 48 19 -2 29 -13 40 -43 8 -22 14
-49 14 -60 -1 -11 -2 -37 -2 -57 0 -26 -5 -41 -18 -47 -10 -6 -21 -7 -25 -4
-3 3 -6 -1 -6 -10 0 -14 4 -15 25 -5 26 12 27 13 31 68 6 68 6 75 -8 110 -22
59 -27 62 -67 56 -20 -4 -58 -10 -86 -14 -60 -9 -75 -17 -74 -40 0 -14 2 -13
9 3 l9 20 1 -20 c3 -33 -1 -69 -11 -85 -6 -10 -7 -6 -3 13 9 41 -3 32 -31 -23
-14 -27 -28 -50 -31 -50 -3 0 -2 5 1 10 3 6 1 10 -4 10 -6 0 -11 -5 -11 -12 0
-6 -7 -4 -18 5 -18 16 -32 14 -32 -5 0 -5 5 -6 10 -3 6 3 13 0 16 -9 8 -20 36
-29 46 -14 6 10 8 8 8 -5 0 -13 -7 -17 -31 -15 -17 1 -33 6 -35 10 -3 4 -10 5
-17 2 -7 -2 -25 8 -40 22 -23 21 -26 29 -15 35 8 5 -3 7 -26 4 -35 -5 -37 -4
-25 12 13 15 12 15 -9 4 -12 -6 -21 -8 -20 -4 3 9 -5 13 -24 13 -9 0 -8 -4 2
-10 8 -5 11 -10 5 -10 -5 0 -22 15 -37 32 -24 29 -30 31 -47 21 -13 -8 -22 -9
-26 -3 -3 6 0 10 7 11 7 0 1 5 -15 11 -15 5 -25 14 -22 19 4 5 -1 6 -9 3 -9
-3 -16 -2 -16 4 0 16 30 23 50 12 10 -6 25 -10 32 -9 7 0 -14 11 -47 23 -54
21 -63 29 -90 77 -17 30 -41 78 -54 107 -21 51 -22 56 -7 93 23 57 20 118 -8
173 -25 50 -18 68 21 48 11 -6 25 -7 35 -1 12 7 25 -3 57 -45 70 -94 108 -125
149 -124 27 1 38 8 51 30 10 17 24 28 38 28 27 0 38 31 22 61 -9 18 -8 24 5
31 23 13 21 58 -3 58 -17 0 -16 4 10 29 16 16 29 34 29 40 0 22 -41 51 -70 51
-41 0 -40 28 5 87 34 45 42 63 28 63 -5 0 -9 11 -9 24 -1 17 5 26 19 30 12 3
19 7 16 10 -3 4 -258 -39 -264 -44 -7 -4 4 -59 13 -68 6 -7 12 -38 12 -68 0
-47 3 -55 18 -52 15 3 17 13 14 79 l-4 76 59 15 c94 26 113 29 113 19 0 -5
-16 -12 -35 -15 -42 -8 -47 -25 -5 -20 40 5 45 -9 16 -43 l-25 -28 5 27 c6 36
-11 43 -38 16 -13 -13 -26 -22 -30 -21 -4 2 -9 -6 -13 -16 -3 -12 4 -33 20
-56 14 -21 30 -55 37 -77 6 -21 17 -43 24 -49 11 -9 10 -16 -6 -36 -26 -34
-27 -60 -2 -35 11 9 17 20 16 23 -5 9 45 33 52 26 4 -4 -1 -18 -10 -32 -13
-20 -14 -30 -6 -46 15 -27 5 -56 -14 -40 -10 9 -19 3 -38 -27 -40 -59 -72 -56
-133 15 -82 93 -118 149 -83 127 7 -4 8 -3 4 5 -4 6 -11 9 -16 6 -4 -3 -11 1
-13 7 -3 7 -6 2 -6 -10 -1 -22 -4 -23 -39 -17 -50 8 -78 -14 -116 -94 -16 -33
-32 -58 -35 -55 -6 5 -7 13 -9 82 -1 24 -5 41 -9 39 -5 -3 -18 11 -30 29 l-22
34 24 0 c16 0 26 -8 33 -27 l10 -28 1 29 c1 16 -7 35 -16 43 -10 8 -12 12 -5
8 7 -4 12 0 12 9 0 22 -13 20 -35 -4 -39 -43 -51 -23 -62 102 -5 66 -3 82 15
117 21 39 20 68 -1 82 -5 4 -12 27 -14 53 -4 35 -12 51 -32 65 -71 50 -145 74
-201 65z m153 -531 c22 -15 47 -39 56 -53 15 -23 15 -24 -4 -16 -72 30 -168
46 -270 45 -155 0 -172 -8 -215 -95 -37 -73 -70 -120 -140 -194 -57 -61 -116
-148 -127 -190 -13 -46 -1 -86 36 -124 29 -30 30 -33 15 -54 -8 -12 -20 -19
-26 -16 -6 4 -8 2 -4 -4 6 -11 2 -16 -55 -67 -44 -40 -61 -46 -84 -29 -10 8
-15 14 -11 14 5 0 3 6 -3 14 -7 8 -9 25 -5 41 4 18 2 30 -6 35 -8 5 -10 17 -6
33 7 31 55 89 66 82 5 -3 12 9 15 27 4 18 20 61 35 94 15 34 28 72 28 85 0 13
12 86 28 163 26 131 28 137 41 112 8 -15 11 -35 8 -46 -3 -10 -1 -21 5 -25 8
-5 3 -12 -12 -19 -18 -9 -23 -20 -24 -51 0 -22 -4 -49 -8 -60 -12 -32 10 1 41
60 39 76 116 186 160 227 l38 37 130 3 c231 5 253 3 298 -29z"/>
<path d="M2914 3981 c4 -5 -4 -7 -15 -4 -20 6 -21 3 -15 -28 5 -30 2 -37 -21
-52 l-28 -18 25 5 c62 13 114 18 108 11 -4 -4 -49 -18 -100 -31 -92 -22 -92
-22 -30 -17 39 4 62 2 62 -4 0 -14 -49 -23 -121 -23 -45 0 -59 3 -59 15 0 8
16 18 38 24 73 19 76 20 33 15 -57 -6 -81 -20 -81 -45 0 -20 5 -21 98 -17 l97
3 3 -41 c2 -33 -2 -48 -23 -73 -16 -18 -20 -29 -12 -25 26 10 47 51 47 94 0
22 5 40 10 40 6 0 10 -12 10 -27 0 -16 9 -39 20 -53 11 -14 20 -30 20 -36 0
-18 31 -26 46 -13 17 14 18 45 4 54 -8 5 -8 11 0 20 8 9 8 15 0 20 -5 3 -10
11 -10 16 0 6 5 7 11 3 8 -5 8 -1 0 14 -6 12 -16 24 -21 27 -6 3 -10 16 -10
28 0 35 -18 6 -26 -40 -6 -39 -4 -45 25 -72 35 -32 40 -51 14 -51 -10 0 -29
17 -42 37 -22 34 -23 40 -12 89 14 61 37 80 115 99 l51 12 -56 -1 c-31 -1 -55
-4 -52 -8 7 -12 -20 -9 -38 5 -9 7 -21 22 -28 35 -6 12 -19 22 -27 22 -8 0
-13 -4 -10 -9z"/>
<path d="M2676 3136 c-3 -14 -11 -38 -18 -53 -6 -15 -12 -32 -12 -36 -1 -4 -7
-12 -15 -16 -16 -10 -53 8 -45 21 3 4 1 8 -5 8 -5 0 -13 -4 -16 -10 -3 -5 -1
-10 4 -10 6 0 11 -4 11 -10 0 -5 -16 -10 -35 -10 -64 0 -36 -19 33 -22 66 -3
66 -3 22 -10 -25 -4 -71 -10 -103 -13 -34 -4 -55 -10 -51 -16 3 -6 13 -7 23
-4 9 4 48 10 88 14 l71 7 6 -39 c4 -21 4 -42 1 -47 -3 -4 -36 -15 -73 -25 -38
-9 -83 -25 -101 -36 -30 -18 -60 -63 -49 -75 10 -10 57 8 52 20 -6 15 54 45
123 61 l53 12 5 -36 c11 -62 15 -68 10 -15 l-4 50 42 20 c37 17 42 22 39 49
-3 28 -30 62 -68 83 -15 9 -15 15 5 82 12 40 20 74 18 77 -3 2 -7 -7 -11 -21z"/>
<path d="M2664 2698 c0 -25 5 -44 10 -41 5 3 6 0 4 -8 -3 -8 1 -21 9 -30 12
-14 11 -18 -2 -29 -13 -11 -14 -10 -9 4 10 27 -22 8 -51 -30 -45 -59 -167
-113 -256 -114 -28 0 -46 24 -27 36 7 5 8 2 3 -7 -5 -8 -4 -11 1 -6 5 5 9 14
9 20 0 7 7 12 15 12 8 1 14 6 13 13 -2 7 3 12 11 12 7 0 27 7 42 15 16 8 40
15 54 16 14 0 19 3 12 6 -20 8 -102 -15 -133 -38 -33 -24 -46 -25 -28 -2 11
14 12 15 1 9 -8 -5 -27 -28 -42 -53 -25 -40 -29 -42 -39 -26 -11 17 -11 17 -9
-2 3 -18 -4 -20 -77 -25 -44 -3 -71 -8 -60 -11 22 -7 -119 -15 -207 -11 -32 1
-58 -2 -58 -7 0 -24 24 -71 36 -71 8 0 14 -5 14 -11 0 -7 12 -9 34 -5 31 6 35
4 45 -25 19 -54 15 -63 -18 -40 -16 12 -69 35 -117 52 -49 17 -106 39 -126 49
-21 10 -38 14 -38 9 0 -5 -16 -27 -36 -49 -20 -22 -29 -38 -20 -34 23 9 134
-60 305 -188 78 -59 102 -60 189 -13 61 34 65 35 83 19 18 -16 22 -15 74 22
31 21 83 62 116 92 l59 54 47 -16 c26 -9 78 -34 115 -57 73 -43 198 -153 198
-174 0 -23 33 -27 60 -7 14 11 39 41 55 69 29 48 31 49 63 41 24 -6 32 -14 32
-31 0 -41 21 -96 48 -128 15 -18 64 -56 109 -86 89 -57 146 -124 125 -145 -19
-19 -14 -64 17 -146 16 -42 35 -94 43 -116 7 -21 18 -41 24 -43 15 -5 78 26
169 85 83 53 204 173 263 260 55 80 56 84 30 101 -21 13 -22 13 -10 -1 17 -21
6 -48 -50 -123 -87 -116 -205 -218 -332 -285 -32 -16 -62 -27 -67 -24 -19 11
-8 30 24 42 18 6 80 43 137 80 81 53 120 87 172 148 37 44 72 92 79 107 11 24
10 30 -9 47 -11 11 -22 16 -24 12 -6 -16 -65 -50 -112 -66 -72 -24 -142 -22
-156 5 -7 11 -14 19 -17 16 -2 -3 1 -14 8 -25 11 -17 10 -30 -4 -76 -12 -37
-23 -56 -34 -56 -10 0 -13 5 -9 17 15 39 18 100 5 108 -9 6 -11 4 -6 -8 8 -22
5 -21 -35 3 l-32 19 34 15 c19 8 28 15 20 16 -9 0 -26 -8 -39 -17 -24 -16 -25
-16 -78 43 -73 79 -194 229 -226 280 -14 23 -39 51 -56 63 -28 21 -29 23 -17
54 32 77 34 72 -55 117 -90 45 -212 126 -250 166 -19 21 -21 28 -12 44 10 14
9 21 -2 30 -8 6 -11 18 -8 26 3 8 1 20 -5 27 -6 6 -12 26 -15 42 -3 18 -4 11
-3 -17z m-954 -367 c0 -5 6 -9 13 -8 29 1 48 -4 44 -10 -3 -5 7 -9 21 -10 15
0 28 -6 30 -11 1 -5 12 -7 24 -4 13 3 19 1 15 -5 -5 -7 0 -9 13 -6 12 3 20 0
20 -7 0 -7 6 -10 14 -7 22 9 116 -82 122 -118 3 -16 2 -26 -2 -22 -4 4 -13 2
-21 -4 -10 -9 -23 -5 -53 15 -22 14 -40 22 -40 16 0 -6 -10 -1 -22 11 -13 11
-32 25 -43 30 -11 5 -33 18 -50 29 -16 10 -45 27 -62 36 -18 9 -33 21 -33 27
0 6 -3 7 -7 4 -3 -4 -12 -2 -19 4 -10 8 -11 16 -3 30 10 19 39 27 39 10z
m1322 -136 c15 -14 41 -46 59 -72 85 -125 259 -318 331 -367 24 -16 26 -21 16
-40 -6 -11 -11 -23 -10 -26 2 -5 -2 -5 -31 -1 -6 0 -18 16 -26 34 -17 37 -65
86 -135 137 -26 19 -76 58 -109 86 -56 45 -63 55 -71 100 -4 27 -11 56 -14 64
-3 8 -4 23 -3 34 2 15 -2 17 -21 13 -37 -10 -51 5 -37 36 15 33 18 33 51 2z
m687 -426 l24 -31 -26 -26 c-22 -22 -30 -24 -50 -15 -35 16 -52 1 -50 -46 3
-57 -22 -62 -36 -7 -6 24 -13 51 -17 60 -4 11 1 19 17 26 22 9 21 10 -7 5 -25
-5 -32 -2 -41 18 -11 24 -11 24 55 30 45 3 69 1 74 -6 5 -8 8 -6 8 6 0 26 22
20 49 -14z"/>
<path d="M1510 2593 c-8 -3 -32 -21 -53 -39 -23 -22 -47 -34 -65 -34 -33 0
-102 -42 -151 -91 -39 -39 -111 -146 -111 -165 0 -13 46 -54 62 -54 5 0 19 11
32 25 25 27 100 64 131 65 17 0 17 2 5 10 -12 8 -12 10 -1 10 8 0 12 3 9 6 -4
3 -18 -2 -33 -12 -25 -17 -27 -16 -48 4 -28 29 -12 48 26 31 31 -14 54 -1 59
33 5 34 22 31 39 -6 16 -34 15 -35 -5 -39 -14 -3 -9 -5 14 -7 l35 -3 -40 -7
-40 -7 42 -2 c32 -1 49 -8 71 -31 31 -30 60 -36 97 -20 14 6 8 7 -20 4 -32 -5
-46 -1 -65 15 l-25 20 43 1 c48 0 92 33 92 69 0 11 6 26 13 33 11 11 5 13 -35
14 -30 0 -55 6 -64 16 -15 14 -13 17 15 34 17 10 31 21 31 24 0 3 8 15 18 28
l18 23 33 -46 c28 -40 31 -48 19 -63 -12 -15 -11 -16 4 -3 19 14 21 12 31 -34
4 -15 5 -13 6 7 1 16 -12 44 -34 72 -19 25 -46 63 -60 86 -25 40 -51 49 -95
33z"/>
<path d="M2383 1735 c-45 -29 -65 -68 -70 -139 -8 -94 35 -165 119 -201 77
-31 149 -14 220 53 36 33 65 117 48 137 -10 13 -15 11 -31 -8 -17 -20 -20 -21
-32 -5 -12 15 -15 14 -35 -7 -25 -26 -29 -55 -7 -55 31 0 2 -26 -30 -27 -37
-1 -87 37 -100 76 -4 13 -15 21 -30 21 -31 0 -39 42 -14 84 36 61 13 104 -38
71z"/>
<path d="M1503 1540 c-136 -27 -210 -133 -201 -289 7 -119 52 -187 153 -233
73 -33 215 -33 303 1 34 13 62 29 62 35 1 29 1 212 1 224 -1 9 -29 12 -106 12
l-105 0 0 -50 c0 -49 1 -50 31 -50 27 0 30 -3 27 -27 -3 -25 -8 -28 -42 -31
-58 -5 -96 15 -117 62 -24 52 -24 110 0 163 22 48 45 63 96 63 47 0 71 -14 90
-50 14 -27 20 -30 65 -30 l50 0 0 100 0 100 -56 0 c-48 0 -57 -3 -61 -20 -5
-19 -7 -19 -22 -6 -9 8 -36 19 -61 25 -51 12 -50 12 -107 1z"/>
<path d="M260 1480 c0 -57 1 -60 24 -60 l25 0 3 -134 c4 -162 3 -166 -28 -166
-23 0 -24 -3 -24 -60 l0 -60 215 0 215 0 0 121 0 120 -42 -3 -43 -3 -15 -57
-14 -58 -43 0 -43 0 0 150 0 150 25 0 c24 0 25 3 25 60 l0 60 -140 0 -140 0 0
-60z"/>
<path d="M3780 1481 l0 -61 30 0 30 0 0 -150 0 -150 -35 0 -35 0 0 -60 0 -60
183 0 c214 1 267 13 304 69 42 63 21 178 -36 196 -26 8 -27 21 -1 35 51 27 65
135 24 182 -39 44 -79 52 -276 56 l-188 4 0 -61z"/>
<path d="M4477 1533 c-4 -3 -7 -30 -7 -59 0 -52 0 -53 33 -56 l32 -3 3 -112
c3 -133 -11 -183 -52 -183 -28 0 -46 25 -46 64 0 24 -3 26 -50 26 l-50 0 0
-105 0 -105 50 0 c37 0 50 4 50 15 0 11 7 10 35 -7 67 -39 157 -15 209 56 19
25 21 44 24 192 l4 164 24 0 c23 0 24 3 24 60 l0 60 -138 0 c-76 0 -142 -3
-145 -7z"/>
<path d="M2980 1513 c-78 -8 -80 -10 -80 -58 0 -43 1 -45 29 -45 27 0 29 -2
28 -40 0 -22 -1 -40 -2 -40 0 0 -18 9 -40 20 -22 11 -50 20 -62 20 -41 0 -89
-27 -119 -65 -54 -71 -41 -224 23 -275 43 -34 96 -43 140 -25 20 9 41 21 45
28 5 8 8 4 8 -10 0 -22 3 -23 105 -23 l105 0 0 50 c0 43 -3 50 -20 50 -19 0
-20 7 -20 210 l0 210 -52 -2 c-29 0 -69 -3 -88 -5z m-35 -259 c11 -12 15 -32
14 -76 -2 -50 -6 -62 -25 -75 -46 -30 -84 10 -84 87 0 65 56 103 95 64z"/>
<path d="M858 1361 c-86 -28 -131 -90 -131 -180 0 -83 28 -128 103 -166 46
-24 160 -24 218 0 41 17 42 19 42 62 0 39 -3 44 -17 40 -70 -23 -103 -29 -125
-24 -31 8 -58 33 -58 53 0 11 21 14 105 14 l105 0 0 38 c0 56 -38 121 -84 145
-43 23 -117 31 -158 18z"/>
<path d="M2045 1365 c-5 -2 -45 -6 -87 -10 l-78 -7 0 -44 c0 -37 3 -44 20 -44
18 0 20 -7 20 -85 0 -89 14 -139 44 -164 28 -23 110 -19 146 7 36 27 40 27 40
2 0 -19 7 -20 100 -20 l100 0 0 50 c0 43 -3 50 -20 50 -18 0 -20 8 -22 132
l-3 132 -55 -3 c-30 -1 -73 -6 -95 -10 -38 -6 -40 -8 -43 -47 -3 -35 0 -42 17
-47 19 -4 21 -13 21 -70 0 -46 -5 -70 -16 -81 -19 -20 -19 -20 -38 0 -13 12
-16 40 -16 140 0 124 -2 130 -35 119z"/>
<path d="M3338 1360 c-85 -25 -131 -89 -131 -179 0 -83 28 -128 103 -166 48
-24 152 -25 213 -2 46 18 47 19 47 64 0 39 -3 44 -17 40 -70 -23 -103 -29
-125 -24 -31 8 -58 33 -58 53 0 11 21 14 105 14 l105 0 0 37 c0 20 -10 57 -21
81 -35 70 -135 108 -221 82z"/>
<path d="M2535 1354 c-11 -2 -46 -6 -77 -9 l-58 -6 0 -39 c0 -32 4 -39 23 -42
21 -3 22 -8 22 -78 0 -70 -1 -75 -22 -78 -20 -3 -23 -9 -23 -53 l0 -49 125 0
125 0 0 50 c0 43 -3 50 -20 50 -19 0 -20 7 -20 130 l0 130 -27 -1 c-16 -1 -37
-3 -48 -5z"/>
<path d="M1117 761 c-14 -17 -29 -41 -33 -53 -4 -13 -12 -26 -18 -30 -6 -4
-11 -26 -12 -48 0 -32 3 -40 15 -38 9 2 17 15 19 31 3 24 7 27 43 27 25 0 39
-5 39 -13 0 -25 26 -51 45 -44 16 7 16 9 -1 35 -10 15 -20 55 -23 92 -5 56 -9
65 -27 68 -14 2 -30 -8 -47 -27z"/>
<path d="M1388 774 c-63 -34 -77 -141 -24 -176 16 -11 64 -10 87 2 15 8 59 81
59 97 0 2 -22 3 -50 3 -54 0 -66 -15 -25 -30 28 -11 31 -20 13 -38 -17 -17
-54 -15 -72 4 -16 16 -21 71 -8 90 15 23 50 34 77 24 20 -8 27 -7 31 5 14 36
-37 47 -88 19z"/>
<path d="M2655 782 c-12 -8 -14 -162 -2 -179 10 -16 89 -17 104 -2 8 8 13 8
17 0 11 -17 44 -13 56 7 10 16 10 16 20 0 13 -21 50 -24 50 -5 0 7 -9 18 -20
25 -27 17 -25 41 5 52 14 5 25 14 25 19 0 19 -18 20 -41 3 -21 -18 -23 -18
-40 -1 -10 10 -25 16 -34 13 -19 -8 -20 -34 -1 -34 19 0 37 -25 31 -41 -4 -10
-25 -14 -78 -14 -70 0 -72 1 -75 26 -3 23 0 26 23 22 26 -6 59 13 49 28 -3 5
-20 9 -38 9 -30 0 -33 2 -28 25 4 21 9 25 36 23 34 -2 56 7 56 23 0 11 -100
12 -115 1z"/>
<path d="M2994 706 c-13 -10 -23 -11 -31 -4 -7 6 -20 7 -29 4 -13 -5 -14 -9
-4 -21 9 -10 10 -37 5 -95 -7 -75 -6 -80 13 -80 17 0 19 5 15 43 l-5 43 35 -4
c27 -3 38 1 51 19 23 33 21 86 -3 99 -25 13 -23 13 -47 -4z"/>
</g>
</svg>
